#!OML:ASF Y:\EmotionMaleHayes\Project 1\Capture day 1\Session 1\Male1.ASF
:FULLY-SPECIFIED
:DEGREES
183
root 1.39725 15.2075 0.152325 -12.5418 82.9709 -30.0817
lowerback 26.1608 3.65851 0.960897
upperback 8.90412 5.71798 2.13033
thorax -4.70493 3.02301 0.0744895
lowerneck -28.9911 2.39009 3.99926
upperneck 12.6762 3.2523 -7.39894
head 8.81875 0.902182 -2.71694
rclavicle 1.98785e-014 -1.59028e-015
rhumerus -3.47784 22.6544 -88.1442
rradius 84.6577
rwrist -4.59273
rhand -31.8125 -16.7498
rfingers 7.12502
rthumb -5.06764 -46.6692
lclavicle 1.98785e-014 -1.59028e-015
lhumerus -63.1142 -22.2612 98.7383
lradius 69.1315
lwrist 26.3726
lhand -46.9533 -42.5579
lfingers 7.12502
lthumb -19.6624 -13.5322
rfemur -20.2971 -2.68826 28.4138
rtibia 54.3705
rfoot 325.042 -6.24683
rtoes -2.91418
lfemur -49.2995 10.7655 -16.8955
ltibia 71.4688
lfoot 168.459 -10.334
ltoes -1.45024
184
root 1.85292 15.2121 0.172415 -13.484 82.3867 -30.9743
lowerback 26.4422 4.18062 0.985075
upperback 8.59371 6.36012 1.98736
thorax -5.16466 3.3145 -0.31982
lowerneck -29.263 2.02945 4.19256
upperneck 13.5066 2.65243 -7.11238
head 9.10991 0.643481 -2.75433
rclavicle 7.39479e-014 1.98785e-014
rhumerus -1.39164 22.9793 -88.5175
rradius 87.1582
rwrist -4.81255
rhand -33.3376 -16.2745
rfingers 7.12502
rthumb -6.54011 -46.1536
lclavicle 7.39479e-014 1.98785e-014
lhumerus -68.317 -24.9644 100.051
lradius 70.2561
lwrist 23.0019
lhand -46.1116 -44.5057
lfingers 7.12502
lthumb -18.853 -15.3993
rfemur -16.8846 -2.42974 28.4564
rtibia 51.9102
rfoot 325.073 -6.62937
rtoes -6.10845
lfemur -54.193 10.9316 -16.3069
ltibia 71.2113
lfoot 169.496 -10.3719
ltoes 6.4215
185
root 2.32489 15.2219 0.191152 -14.9095 81.8532 -32.3177
lowerback 26.8074 4.71999 1.25798
upperback 8.23917 7.0834 1.7852
thorax -5.67113 3.64109 -0.958655
lowerneck -29.4461 1.46907 3.92659
upperneck 14.2682 1.84484 -6.31694
head 9.34072 0.331149 -2.56996
rclavicle 2.8625e-014 1.90833e-014
rhumerus 0.492212 23.204 -88.4242
rradius 89.6478
rwrist -5.59907
rhand -34.7883 -16.5351
rfingers 7.12502
rthumb -7.94043 -46.366
lclavicle 2.8625e-014 1.90833e-014
lhumerus -73.7654 -27.9088 101.821
lradius 71.5433
lwrist 19.0591
lhand -45.7434 -45.3394
lfingers 7.12502
lthumb -18.4989 -16.199
rfemur -13.2782 -2.14183 28.5368
rtibia 49.2095
rfoot 325.303 -6.97058
rtoes -9.15184
lfemur -58.6949 11.0502 -15.615
ltibia 71.7484
lfoot 167.319 -9.7001
ltoes 0.759677
186
root 2.8182 15.2394 0.202891 -17.3739 81.5244 -34.7233
lowerback 27.0166 5.17468 1.77772
upperback 7.97848 7.7717 1.61439
thorax -5.95807 3.95538 -1.67622
lowerneck -29.7617 0.859128 3.65894
upperneck 14.9959 0.995318 -5.67994
head 9.59268 -0.0141684 -2.44998
rclavicle 3.97569e-015 -5.96354e-014
rhumerus 2.16384 23.434 -87.7641
rradius 92.3066
rwrist -7.12262
rhand -36.2309 -17.5557
rfingers 7.12502
rthumb -9.33257 -47.3291
lclavicle 3.97569e-015 -5.96354e-014
lhumerus -78.9488 -30.5883 103.828
lradius 72.7128
lwrist 15.2311
lhand -45.1774 -44.9902
lfingers 7.12502
lthumb -17.9543 -15.7989
rfemur -9.48143 -2.10293 28.5896
rtibia 46.0978
rfoot 326.012 -7.07983
rtoes -12.3339
lfemur -62.8137 11.0289 -14.9068
ltibia 73.0951
lfoot 165.638 -9.53164
ltoes -5.29712
187
root 3.32675 15.268 0.208078 -20.4246 81.3516 -37.8099
lowerback 26.9553 5.54896 2.31814
upperback 7.82168 8.37131 1.52135
thorax -5.99363 4.23559 -2.25926
lowerneck -30.0658 0.342178 3.56655
upperneck 15.6197 0.252599 -5.30738
head 9.82329 -0.325214 -2.43598
rclavicle -4.77083e-014 -1.51076e-014
rhumerus 3.49201 24.0212 -86.5442
rradius 95.2281
rwrist -9.59604
rhand -37.4069 -18.7493
rfingers 7.12502
rthumb -10.4672 -48.4687
lclavicle -4.77083e-014 -1.51076e-014
lhumerus -83.4997 -32.4083 105.502
lradius 73.8773
lwrist 11.9317
lhand -43.8864 -44.4116
lfingers 7.12502
lthumb -16.7119 -15.1109
rfemur -5.6515 -2.3672 28.5151
rtibia 42.5381
rfoot 327.405 -6.94111
rtoes -15.5346
lfemur -66.6071 11.0823 -14.2863
ltibia 75.1469
lfoot 164.613 -9.74077
ltoes -10.1745
188
root 3.85789 15.3108 0.211528 -21.0822 81.1674 -38.5066
lowerback 26.6624 6.03439 2.39902
upperback 7.77676 8.9867 1.40942
thorax -5.84258 4.53338 -2.57616
lowerneck -30.1598 -0.12339 3.31794
upperneck 15.9574 -0.393411 -4.79886
head 9.92702 -0.577452 -2.32555
rclavicle 2.54444e-014 1.19271e-014
rhumerus 5.08018 24.8354 -84.5835
rradius 97.8151
rwrist -12.4807
rhand -38.1974 -18.84
rfingers 7.12502
rthumb -11.2296 -48.5194
lclavicle 2.54444e-014 1.19271e-014
lhumerus -87.4764 -33.4188 106.609
lradius 75.3096
lwrist 9.54642
lhand -42.0392 -43.4237
lfingers 7.12502
lthumb -14.933 -13.982
rfemur -1.79156 -2.4579 27.996
rtibia 38.7151
rfoot 329.324 -6.65639
rtoes -18.0622
lfemur -69.6951 11.4455 -14.1137
ltibia 78.0427
lfoot 164.444 -8.24461
ltoes -7.68309
189
root 4.41632 15.3635 0.214343 -18.897 81.0592 -36.3424
lowerback 26.0804 6.60998 1.93412
upperback 7.73052 9.56061 1.18727
thorax -5.61557 4.81457 -2.66096
lowerneck -29.8719 -0.561071 3.17715
upperneck 16.1573 -1.0508 -4.26525
head 9.92379 -0.82062 -2.21787
rclavicle -6.36111e-015 2.8625e-014
rhumerus 6.51088 25.8195 -82.3078
rradius 100.167
rwrist -14.8338
rhand -39.1104 -19.9056
rfingers 7.12502
rthumb -12.1101 -49.5351
lclavicle -6.36111e-015 2.8625e-014
lhumerus -91.6334 -34.1635 107.883
lradius 76.5213
lwrist 8.69763
lhand -40.6963 -42.7569
lfingers 7.12502
lthumb -13.6389 -13.2238
rfemur 2.06159 -2.34975 26.8932
rtibia 34.7959
rfoot 331.665 -5.80187
rtoes -19.3658
lfemur -71.992 11.9876 -14.5629
ltibia 82.5501
lfoot 169.971 20.2569
ltoes -7.66859
